<svg width="17" height="16" viewBox="0 0 17 16" fill="none" xmlns="http://www.w3.org/2000/svg">
<g id="icon/action/info_outline_24px">
<path id="icon/action/info_outline_24px_2" fill-rule="evenodd" clip-rule="evenodd" d="M8.87467 1.33325C5.19467 1.33325 2.20801 4.31992 2.20801 7.99992C2.20801 11.6799 5.19467 14.6666 8.87467 14.6666C12.5547 14.6666 15.5413 11.6799 15.5413 7.99992C15.5413 4.31992 12.5547 1.33325 8.87467 1.33325ZM8.20801 4.66658V5.99992H9.54134V4.66658H8.20801ZM9.54134 10.6666C9.54134 11.0333 9.24134 11.3333 8.87467 11.3333C8.50801 11.3333 8.20801 11.0333 8.20801 10.6666V7.99992C8.20801 7.63325 8.50801 7.33325 8.87467 7.33325C9.24134 7.33325 9.54134 7.63325 9.54134 7.99992V10.6666ZM3.54134 7.99992C3.54134 10.9399 5.93467 13.3333 8.87467 13.3333C11.8147 13.3333 14.208 10.9399 14.208 7.99992C14.208 5.05992 11.8147 2.66659 8.87467 2.66659C5.93467 2.66659 3.54134 5.05992 3.54134 7.99992Z" fill="white" fill-opacity="0.8"/>
</g>
</svg>
