<svg width="19" height="18" viewBox="0 0 19 18" fill="none" xmlns="http://www.w3.org/2000/svg">
<path id="icon/action/power_settings_new_24px" fill-rule="evenodd" clip-rule="evenodd" d="M8.87664 1.00537C8.87664 0.455371 9.32664 0.00537109 9.87664 0.00537109C10.4266 0.00537109 10.8766 0.455371 10.8766 1.00537V9.00537C10.8766 9.55537 10.4266 10.0054 9.87664 10.0054C9.32664 10.0054 8.87664 9.55537 8.87664 9.00537V1.00537ZM15.0066 4.25537C14.6366 3.86537 14.6266 3.25537 15.0166 2.86537C15.4166 2.46537 16.0766 2.47537 16.4566 2.88537C17.9566 4.48537 18.8766 6.62537 18.8766 8.99537C18.8766 14.0654 14.6866 18.1554 9.58664 17.9954C4.70664 17.8454 0.736639 13.6254 0.876639 8.74537C0.946639 6.47537 1.85664 4.42537 3.30664 2.88537C3.68664 2.47537 4.33664 2.46537 4.73664 2.86537C5.11664 3.24537 5.11664 3.85537 4.74664 4.24537C3.58664 5.49537 2.87664 7.16537 2.87664 9.00537C2.87664 12.9054 6.05664 16.0554 9.96664 15.9954C13.7966 15.9554 16.9666 12.6554 16.8766 8.82537C16.8366 7.05537 16.1366 5.45537 15.0066 4.25537Z" fill="white"/>
</svg>
